<?xml version="1.0" standalone="no"?>
<!DOCTYPE svg PUBLIC "-//W3C//DTD SVG 20010904//EN"
 "http://www.w3.org/TR/2001/REC-SVG-20010904/DTD/svg10.dtd">
<svg version="1.0" xmlns="http://www.w3.org/2000/svg"
 width="3435.000000pt" height="3435.000000pt" viewBox="0 0 3435.000000 3435.000000"
 preserveAspectRatio="xMidYMid meet">

<g transform="translate(0.000000,3435.000000) scale(0.100000,-0.100000)"
fill="#000000" stroke="none">
<path d="M2175 34319 c-77 -4 -174 -15 -215 -24 -41 -9 -118 -26 -170 -37
-274 -59 -529 -174 -784 -355 -22 -16 -57 -40 -79 -56 -75 -51 -214 -182 -345
-326 -147 -160 -350 -504 -417 -706 -14 -44 -31 -89 -36 -100 -14 -30 -56
-211 -78 -340 -5 -33 -15 -127 -20 -210 -8 -106 -11 -4499 -11 -15000 0
-15804 -2 -15062 44 -15285 26 -123 82 -325 96 -345 4 -5 10 -23 14 -38 4 -16
27 -72 52 -125 26 -53 50 -106 55 -117 29 -63 142 -239 218 -340 84 -113 322
-354 403 -409 29 -20 78 -55 108 -76 101 -73 239 -153 345 -200 85 -39 107
-47 196 -79 82 -30 112 -39 279 -82 87 -22 195 -37 370 -49 163 -12 29817 -12
29970 0 182 14 284 28 388 56 53 14 111 29 127 34 50 13 139 43 165 57 14 7
31 13 38 13 7 0 60 22 118 50 58 27 108 50 110 50 9 0 146 89 329 214 81 56
338 313 410 411 32 44 62 82 65 85 4 3 29 42 56 88 27 46 57 95 66 110 26 43
125 245 132 272 4 14 11 34 16 45 34 74 88 269 110 395 5 30 15 87 22 125 16
90 25 30008 8 30170 -19 195 -30 267 -56 363 -14 53 -29 113 -33 132 -4 19
-12 44 -18 55 -6 11 -21 49 -33 85 -40 120 -169 367 -258 495 -150 216 -345
414 -549 558 -283 201 -536 318 -813 376 -52 11 -128 27 -167 35 -40 9 -150
21 -245 26 -212 12 -29777 11 -29983 -1z m13100 -1457 c63 -15 142 -23 265
-28 141 -6 190 -12 255 -31 46 -13 121 -26 180 -29 68 -5 120 -14 165 -31 36
-13 105 -28 155 -33 51 -5 110 -17 136 -29 25 -11 84 -25 132 -30 49 -6 103
-19 126 -30 22 -12 73 -26 112 -31 40 -6 87 -19 105 -31 18 -11 61 -25 96 -31
35 -6 83 -21 108 -33 25 -12 67 -25 93 -28 26 -4 67 -18 90 -31 23 -13 62 -27
87 -31 25 -4 63 -18 85 -30 22 -13 58 -27 80 -30 22 -4 59 -18 82 -31 53 -31
101 -30 163 1 27 14 62 25 77 25 39 0 105 19 124 36 9 8 45 19 80 25 35 6 89
21 119 34 30 13 84 27 120 31 36 3 90 17 120 29 30 12 96 27 145 33 50 6 112
20 139 32 33 15 83 25 155 31 61 5 131 17 166 29 45 16 101 24 222 31 105 6
187 17 235 30 107 29 732 44 1335 31 413 -9 453 -12 512 -31 47 -16 106 -23
230 -30 132 -7 177 -14 221 -31 35 -14 93 -25 163 -30 74 -6 127 -17 170 -34
34 -13 96 -27 137 -31 41 -4 100 -17 130 -30 30 -12 86 -26 125 -30 39 -4 90
-17 115 -30 25 -12 77 -27 117 -33 39 -7 87 -21 105 -31 18 -11 56 -22 83 -26
28 -4 71 -17 96 -30 25 -13 70 -28 101 -34 30 -5 70 -19 89 -30 19 -10 54 -25
79 -31 24 -7 66 -23 92 -36 26 -13 56 -24 67 -24 11 0 52 -16 92 -35 41 -19
80 -35 89 -35 8 0 32 -11 52 -25 20 -14 45 -25 55 -25 10 0 49 -16 87 -35 39
-19 76 -35 84 -35 8 0 26 -9 41 -19 15 -11 47 -27 72 -37 24 -10 55 -25 69
-34 14 -10 43 -23 65 -30 22 -7 47 -18 55 -26 8 -7 35 -22 60 -33 25 -12 77
-39 115 -61 39 -22 93 -51 120 -65 64 -33 124 -68 221 -127 42 -27 79 -48 82
-48 3 0 28 -15 56 -34 28 -18 94 -61 146 -94 104 -67 174 -114 225 -152 18
-14 46 -33 62 -42 15 -10 47 -32 70 -50 23 -18 79 -60 125 -92 46 -33 90 -67
99 -75 9 -9 32 -28 50 -43 307 -245 403 -331 734 -663 254 -255 403 -412 433
-457 8 -13 30 -39 47 -58 18 -19 49 -57 70 -85 21 -27 57 -72 81 -100 40 -46
84 -104 127 -165 9 -14 33 -45 52 -70 19 -25 60 -81 90 -125 31 -44 71 -100
90 -125 19 -25 44 -63 56 -85 12 -22 31 -52 43 -67 11 -14 34 -48 49 -75 16
-26 38 -63 50 -82 96 -149 184 -301 230 -396 14 -28 32 -57 40 -64 9 -7 18
-25 22 -40 3 -14 19 -47 35 -71 17 -25 30 -52 30 -61 0 -9 13 -36 30 -60 16
-24 30 -51 30 -59 0 -8 14 -35 30 -60 16 -25 30 -52 30 -61 0 -9 13 -40 29
-70 15 -30 31 -67 35 -83 4 -17 16 -41 26 -55 10 -14 24 -42 32 -61 18 -41 90
-110 117 -110 10 0 36 -12 57 -26 21 -15 56 -33 78 -41 22 -7 47 -20 56 -28 9
-8 32 -20 51 -27 19 -6 48 -21 64 -33 27 -20 135 -82 244 -141 21 -11 52 -31
67 -43 16 -13 43 -29 59 -37 49 -24 263 -161 322 -206 20 -16 39 -28 43 -28 5
0 26 -15 49 -32 52 -42 102 -80 171 -128 30 -21 87 -64 125 -95 39 -31 124
-99 190 -151 66 -52 147 -119 180 -149 261 -235 335 -304 443 -414 68 -69 156
-163 195 -208 171 -195 317 -367 377 -443 36 -45 72 -90 81 -99 8 -9 42 -53
75 -99 32 -46 74 -102 91 -125 18 -23 40 -53 50 -67 50 -75 86 -129 106 -157
12 -18 45 -66 72 -108 46 -71 67 -105 120 -194 11 -18 32 -52 47 -75 15 -22
28 -46 28 -53 0 -6 11 -24 24 -40 13 -15 33 -48 45 -73 12 -25 37 -72 56 -105
19 -33 45 -82 59 -110 14 -27 32 -61 40 -75 31 -54 146 -294 146 -305 0 -6 13
-31 29 -56 16 -24 31 -60 35 -80 4 -21 13 -43 21 -49 9 -7 22 -38 31 -69 9
-31 25 -67 34 -81 10 -14 25 -52 33 -84 9 -32 23 -66 33 -77 9 -10 20 -40 25
-66 5 -26 20 -68 33 -94 14 -25 28 -63 31 -85 4 -21 18 -57 30 -79 13 -22 28
-66 34 -97 5 -32 19 -75 30 -96 11 -22 25 -67 30 -101 6 -34 20 -78 32 -97 12
-20 25 -64 30 -104 4 -38 18 -89 30 -112 13 -25 25 -76 31 -123 4 -44 19 -107
32 -140 15 -36 27 -90 30 -136 3 -42 16 -103 29 -140 18 -46 27 -96 31 -174 5
-72 16 -136 31 -185 20 -62 26 -111 35 -280 6 -134 16 -227 27 -270 16 -59 18
-126 18 -715 0 -585 -2 -657 -18 -720 -10 -43 -21 -147 -28 -270 -8 -162 -15
-214 -34 -275 -14 -45 -26 -117 -30 -180 -5 -72 -15 -125 -32 -170 -14 -38
-28 -103 -32 -155 -5 -54 -17 -108 -30 -136 -11 -25 -25 -81 -29 -125 -6 -46
-18 -97 -31 -122 -12 -23 -25 -73 -30 -110 -5 -38 -19 -87 -31 -111 -12 -24
-26 -70 -31 -103 -5 -33 -20 -81 -33 -107 -13 -25 -26 -68 -29 -94 -4 -26 -18
-67 -32 -91 -14 -23 -25 -54 -25 -68 0 -14 -13 -51 -29 -81 -16 -30 -32 -75
-36 -99 -4 -23 -18 -62 -31 -85 -30 -52 -30 -98 0 -154 13 -25 26 -72 30 -104
4 -33 18 -78 31 -100 13 -22 26 -67 30 -100 4 -33 19 -82 32 -108 14 -29 28
-79 32 -122 5 -41 18 -93 30 -117 12 -27 24 -80 30 -135 6 -60 17 -106 32
-135 17 -32 24 -70 30 -153 5 -73 16 -133 32 -180 19 -55 26 -99 31 -211 4
-98 13 -169 30 -235 22 -86 25 -124 33 -444 10 -435 10 -561 0 -1000 -8 -326
-10 -356 -33 -435 -17 -62 -26 -129 -33 -245 -8 -124 -14 -172 -31 -215 -15
-37 -24 -90 -29 -160 -5 -75 -14 -119 -30 -155 -13 -30 -27 -88 -33 -145 -6
-57 -18 -111 -30 -134 -11 -22 -25 -74 -30 -115 -5 -41 -20 -97 -32 -125 -13
-28 -27 -75 -30 -105 -4 -29 -18 -74 -31 -100 -13 -25 -26 -71 -30 -101 -4
-30 -18 -73 -30 -95 -13 -22 -26 -60 -30 -85 -4 -25 -20 -72 -36 -105 -16 -33
-29 -70 -29 -83 0 -12 -13 -48 -30 -79 -16 -31 -30 -67 -30 -81 0 -13 -13 -48
-29 -76 -16 -28 -31 -65 -34 -82 -3 -18 -18 -49 -32 -69 -14 -21 -25 -47 -25
-59 0 -12 -12 -41 -26 -66 -14 -25 -32 -64 -39 -87 -7 -23 -21 -54 -32 -70
-11 -15 -25 -43 -31 -61 -6 -18 -20 -45 -31 -60 -10 -15 -24 -46 -30 -69 -6
-23 -16 -45 -22 -49 -6 -3 -24 -34 -40 -68 -17 -33 -42 -83 -58 -111 -15 -27
-52 -95 -81 -150 -29 -55 -63 -112 -76 -127 -12 -16 -26 -38 -30 -50 -4 -13
-17 -37 -30 -54 -13 -17 -24 -35 -24 -40 0 -8 -44 -78 -100 -159 -12 -16 -36
-55 -55 -85 -19 -30 -42 -66 -52 -79 -10 -13 -40 -56 -68 -96 -27 -40 -75
-106 -106 -146 -31 -41 -73 -99 -93 -129 -21 -30 -57 -75 -79 -100 -23 -26
-69 -82 -101 -125 -33 -44 -62 -82 -65 -85 -3 -3 -26 -27 -50 -55 -232 -262
-475 -512 -731 -751 -47 -43 -92 -86 -100 -95 -26 -28 -222 -192 -285 -239
-33 -25 -69 -54 -81 -65 -44 -42 -244 -190 -449 -329 -17 -12 -41 -31 -55 -44
-13 -12 -29 -22 -35 -22 -7 0 -31 -14 -53 -30 -23 -17 -46 -30 -50 -30 -5 0
-17 -9 -26 -19 -10 -11 -41 -31 -70 -44 -28 -14 -58 -32 -65 -41 -7 -9 -19
-16 -25 -16 -7 0 -30 -13 -52 -30 -21 -16 -44 -30 -51 -30 -6 0 -25 -11 -41
-25 -17 -14 -49 -32 -73 -40 -24 -9 -50 -22 -59 -30 -20 -18 -58 -38 -299
-161 -101 -51 -189 -98 -194 -103 -6 -6 -19 -11 -28 -11 -9 0 -41 -13 -71 -28
-30 -16 -67 -32 -82 -36 -16 -4 -43 -18 -60 -30 -17 -13 -47 -29 -67 -35 -22
-7 -41 -22 -49 -39 -8 -15 -23 -40 -35 -57 -12 -16 -46 -78 -76 -137 -80 -159
-92 -181 -115 -214 -11 -16 -26 -43 -33 -61 -7 -17 -21 -39 -31 -48 -11 -10
-22 -30 -25 -46 -4 -15 -18 -44 -33 -63 -15 -19 -40 -58 -57 -86 -16 -28 -40
-66 -52 -83 -12 -18 -34 -52 -47 -77 -14 -25 -39 -63 -56 -85 -16 -22 -37 -51
-46 -65 -10 -14 -37 -54 -61 -90 -24 -36 -59 -85 -79 -110 -19 -25 -47 -63
-61 -85 -14 -22 -56 -76 -92 -120 -37 -44 -81 -100 -98 -125 -49 -71 -197
-240 -456 -521 -203 -221 -573 -558 -858 -784 -169 -134 -383 -295 -392 -295
-7 0 -102 -64 -137 -93 -16 -12 -51 -35 -80 -52 -28 -16 -70 -45 -92 -63 -22
-17 -44 -32 -50 -32 -5 0 -29 -14 -53 -30 -24 -17 -47 -30 -52 -30 -4 0 -26
-14 -47 -30 -22 -17 -45 -30 -52 -30 -7 0 -25 -11 -41 -24 -15 -13 -48 -33
-73 -45 -25 -12 -72 -37 -105 -56 -33 -19 -80 -45 -105 -58 -25 -13 -58 -31
-75 -40 -16 -9 -43 -22 -60 -30 -16 -8 -43 -21 -60 -30 -16 -10 -46 -23 -65
-31 -19 -8 -46 -21 -60 -29 -43 -25 -174 -85 -208 -96 -18 -6 -45 -19 -60 -29
-15 -11 -43 -23 -62 -27 -19 -4 -50 -18 -70 -30 -19 -13 -52 -26 -74 -30 -21
-3 -55 -17 -76 -30 -21 -13 -55 -27 -76 -31 -22 -4 -57 -17 -79 -30 -22 -13
-60 -26 -85 -30 -25 -3 -63 -17 -86 -30 -23 -13 -68 -27 -100 -33 -33 -5 -75
-18 -94 -29 -19 -11 -63 -25 -98 -31 -35 -5 -79 -20 -98 -32 -20 -12 -64 -25
-106 -30 -39 -5 -87 -18 -106 -29 -21 -13 -67 -25 -116 -31 -44 -5 -106 -20
-136 -33 -35 -15 -85 -26 -138 -30 -51 -4 -106 -16 -141 -30 -42 -17 -88 -25
-170 -31 -76 -4 -135 -15 -182 -30 -57 -20 -99 -25 -232 -30 -125 -5 -187 -13
-272 -33 l-110 -27 -700 0 -700 0 -65 23 c-52 18 -102 24 -250 33 -143 8 -199
15 -245 31 -35 12 -112 26 -185 33 -87 8 -139 18 -173 34 -30 14 -77 24 -130
28 -51 3 -103 14 -139 29 -31 13 -92 28 -135 33 -46 5 -97 18 -122 31 -24 12
-74 26 -110 31 -36 5 -81 19 -99 30 -19 11 -67 26 -106 34 -39 7 -89 23 -111
34 -21 12 -53 21 -70 21 -16 0 -57 13 -90 28 -33 16 -78 32 -100 36 -22 4 -58
18 -80 31 -22 13 -58 27 -80 31 -22 4 -61 17 -87 30 -60 30 -106 30 -166 0
-26 -13 -69 -27 -97 -31 -27 -4 -70 -17 -95 -30 -25 -13 -72 -26 -104 -30 -33
-4 -82 -18 -110 -31 -28 -13 -85 -27 -127 -32 -41 -5 -93 -19 -115 -30 -23
-12 -77 -24 -136 -30 -62 -7 -111 -18 -139 -33 -32 -16 -71 -24 -151 -30 -72
-5 -132 -16 -182 -33 -53 -19 -95 -26 -148 -26 -111 0 -247 -17 -308 -39 -88
-30 -786 -44 -1440 -28 -310 8 -341 10 -420 33 -62 17 -129 26 -245 33 -124 8
-172 14 -215 31 -37 15 -92 25 -165 30 -84 6 -123 14 -165 33 -36 16 -83 27
-135 32 -44 3 -100 15 -125 26 -25 11 -78 24 -119 29 -41 6 -97 21 -125 34
-28 13 -76 27 -106 30 -30 4 -73 18 -95 31 -22 12 -67 26 -100 30 -33 4 -78
18 -100 30 -22 13 -60 26 -85 30 -25 4 -64 18 -86 31 -23 13 -61 26 -85 30
-24 4 -68 20 -98 35 -30 16 -63 29 -75 29 -12 0 -44 12 -71 27 -28 14 -67 30
-87 35 -20 4 -54 19 -74 33 -20 14 -45 25 -54 25 -9 0 -41 13 -71 29 -30 15
-68 32 -86 35 -18 4 -43 16 -56 26 -13 10 -44 27 -68 36 -24 10 -55 25 -69 34
-14 10 -42 23 -64 30 -21 7 -54 23 -74 36 -19 13 -40 24 -46 24 -6 0 -27 11
-47 24 -33 23 -178 101 -279 152 -25 13 -54 32 -64 43 -11 12 -24 21 -30 21
-19 0 -356 211 -456 285 -19 14 -51 38 -72 53 -20 15 -49 35 -65 44 -15 10
-48 33 -73 52 -25 20 -76 57 -115 83 -38 25 -99 72 -135 103 -36 31 -105 87
-155 125 -121 94 -258 219 -510 465 -412 403 -772 821 -999 1158 -19 29 -55
79 -80 112 -25 32 -54 76 -66 97 -11 21 -38 63 -60 93 -22 30 -47 71 -56 90
-9 19 -24 44 -33 55 -10 11 -37 54 -61 95 -23 41 -50 86 -60 100 -9 14 -27 45
-39 70 -12 25 -39 74 -61 110 -21 36 -44 76 -50 90 -5 14 -17 36 -26 50 -8 14
-24 45 -35 70 -11 25 -25 54 -31 65 -42 73 -96 185 -102 209 -4 17 -16 42 -27
58 -11 15 -26 49 -34 76 -8 27 -21 55 -29 61 -7 6 -21 31 -30 55 -20 51 -59
78 -274 188 -76 38 -150 80 -167 92 -16 13 -41 27 -54 31 -14 4 -42 20 -64 36
-22 16 -45 29 -52 29 -7 0 -30 12 -52 28 -49 34 -71 48 -107 70 -15 9 -42 27
-60 39 -17 12 -51 34 -76 47 -25 14 -63 39 -85 55 -22 17 -74 52 -115 80 -72
48 -103 70 -190 136 -22 17 -63 46 -91 65 -29 19 -64 46 -80 60 -15 14 -51 43
-80 65 -67 52 -185 148 -225 183 -17 15 -64 56 -104 92 -172 152 -378 351
-511 493 -78 84 -165 177 -194 207 -63 67 -216 248 -270 320 -22 29 -47 60
-55 69 -8 9 -24 28 -35 42 -79 103 -112 146 -125 165 -8 12 -36 50 -63 85 -26
35 -66 93 -89 129 -23 36 -54 80 -70 98 -15 18 -28 38 -29 45 0 7 -20 39 -44
72 -25 33 -54 78 -66 100 -12 22 -32 54 -45 71 -13 17 -24 34 -24 38 0 10 -66
120 -97 162 -13 17 -23 38 -23 47 0 8 -11 29 -25 45 -14 17 -31 45 -37 64 -6
18 -20 47 -32 63 -12 17 -65 120 -119 230 -54 110 -111 225 -127 255 -15 30
-31 69 -34 87 -4 17 -14 37 -22 44 -8 6 -21 37 -30 68 -9 31 -25 68 -35 82
-10 14 -23 48 -30 75 -7 27 -23 67 -35 90 -13 22 -24 49 -24 60 0 10 -13 47
-30 81 -16 35 -32 80 -36 100 -4 21 -17 56 -30 78 -12 22 -26 63 -30 90 -3 28
-17 70 -29 95 -12 25 -27 73 -33 108 -6 35 -21 79 -33 98 -12 20 -25 64 -30
104 -4 38 -18 88 -29 110 -12 24 -25 77 -31 126 -5 49 -18 103 -30 126 -13 26
-24 74 -30 133 -4 51 -15 112 -24 136 -28 77 -33 102 -40 203 -4 62 -16 128
-31 174 -17 54 -24 97 -24 156 0 123 -18 300 -40 406 -18 89 -20 135 -20 703
0 603 0 608 24 730 17 82 27 177 32 292 5 138 11 184 30 243 15 47 26 111 30
180 5 76 14 126 31 172 15 39 27 103 33 161 5 64 15 109 29 137 13 25 25 75
30 124 5 51 16 99 30 126 12 23 26 74 30 112 5 40 18 84 30 104 12 19 26 63
32 97 5 34 19 79 30 101 11 21 24 65 30 96 6 31 21 75 33 97 13 22 26 59 30
83 3 24 17 60 31 80 13 20 27 57 31 82 3 25 17 64 30 87 29 51 30 96 4 146
-11 21 -27 70 -34 110 -8 40 -23 88 -35 107 -11 19 -23 60 -27 90 -3 30 -17
78 -30 106 -13 28 -27 80 -30 115 -4 35 -17 90 -30 122 -14 32 -28 93 -33 140
-4 47 -18 104 -30 132 -16 34 -26 83 -32 155 -5 61 -19 137 -32 180 -19 58
-26 108 -31 215 -4 103 -13 168 -33 245 l-27 105 1 830 0 830 27 85 c22 69 28
112 32 230 5 117 11 159 31 218 16 47 27 111 32 180 6 78 15 123 33 167 14 33
29 92 32 132 4 40 18 98 30 130 13 32 27 87 30 122 4 36 16 82 27 104 11 21
26 73 34 116 7 42 22 93 33 112 11 19 23 57 27 84 4 28 17 71 30 96 13 25 28
70 34 100 6 30 22 76 36 103 14 27 25 59 25 70 0 12 14 48 30 81 16 33 30 69
30 81 0 12 13 45 29 75 15 30 32 70 36 89 4 19 18 51 31 70 13 19 24 43 24 54
0 10 13 42 29 70 16 28 32 65 35 82 4 17 18 46 32 65 13 18 24 38 24 43 0 11
56 133 87 191 9 17 30 55 46 85 16 30 39 73 50 95 11 22 30 56 43 75 13 19 24
42 24 51 0 9 14 33 30 54 17 21 30 43 30 50 0 6 16 34 35 61 19 27 35 52 35
57 0 4 12 26 27 50 31 50 85 135 98 158 38 63 162 246 205 304 14 18 33 46 42
62 10 15 32 47 50 70 18 23 56 75 85 115 47 67 70 96 131 167 57 67 140 168
155 191 110 162 928 964 1111 1089 11 8 53 42 92 75 39 34 99 81 133 106 34
25 81 60 104 77 23 18 69 50 101 70 33 21 76 52 95 68 43 37 78 61 135 95 23
14 77 48 118 75 82 54 116 76 183 115 116 69 141 84 155 95 8 6 31 18 50 25
19 8 48 24 63 37 16 13 34 23 41 23 6 0 36 16 66 35 30 19 62 35 71 35 10 0
30 11 46 24 15 13 45 28 66 34 20 6 51 22 68 36 17 14 39 26 48 26 10 0 36 12
57 27 21 14 57 30 78 35 21 5 51 17 65 27 14 10 44 24 66 31 105 34 235 132
235 178 0 9 14 37 30 62 16 25 30 52 30 61 0 9 11 32 24 52 14 20 34 55 46 79
11 24 36 70 56 103 19 33 42 76 52 95 9 19 26 49 38 65 11 17 26 44 33 62 7
17 23 41 37 54 13 12 24 27 24 33 1 6 20 41 43 77 44 69 51 80 126 192 25 38
55 83 66 102 11 18 43 62 70 97 27 35 69 92 94 128 24 36 65 90 90 120 26 30
60 73 76 94 85 112 118 152 231 281 322 369 714 743 1059 1010 43 33 92 72
110 87 18 15 59 47 93 70 33 24 88 64 123 91 35 26 96 68 134 94 39 26 77 53
85 61 8 8 28 21 45 28 16 7 55 31 85 53 30 22 73 50 95 62 22 12 54 32 71 45
17 13 34 24 38 24 11 0 125 70 158 96 15 12 41 25 57 29 16 3 37 15 46 25 10
11 34 24 54 31 20 6 50 21 66 33 17 12 120 66 230 120 110 54 226 111 257 127
31 16 65 29 75 29 10 0 41 14 68 30 28 16 57 30 65 30 8 0 40 13 70 29 30 16
71 32 90 36 19 4 47 16 61 26 15 10 51 24 80 30 30 6 69 20 87 30 18 10 54 24
80 31 26 6 67 21 92 34 25 13 65 26 90 30 25 4 65 17 90 29 25 13 68 26 95 30
28 4 73 19 100 32 28 14 80 29 117 34 37 5 86 18 108 29 24 12 77 25 124 30
46 6 104 19 130 31 28 12 85 24 139 29 52 5 120 19 157 33 45 17 98 26 169 31
64 4 131 16 175 30 56 18 105 25 236 30 91 4 203 14 250 23 159 28 235 31 840
28 577 -2 609 -3 695 -23z"/>
<path d="M14090 30980 c-36 -5 -87 -14 -115 -20 -27 -6 -131 -15 -230 -20
-151 -7 -192 -12 -255 -33 -51 -17 -108 -27 -178 -31 -74 -4 -115 -12 -145
-26 -23 -12 -87 -27 -142 -34 -57 -7 -117 -22 -140 -33 -22 -11 -68 -24 -103
-28 -35 -4 -82 -17 -106 -30 -23 -12 -67 -26 -97 -30 -30 -4 -74 -18 -99 -31
-25 -13 -71 -28 -103 -33 -32 -6 -71 -20 -87 -31 -16 -11 -49 -24 -73 -29 -25
-4 -66 -20 -90 -35 -25 -14 -54 -26 -64 -26 -10 0 -45 -14 -78 -30 -33 -16
-66 -30 -74 -30 -7 0 -37 -13 -65 -29 -28 -16 -68 -34 -88 -40 -20 -7 -42 -19
-49 -27 -6 -8 -36 -21 -65 -30 -30 -8 -56 -19 -59 -24 -3 -5 -51 -32 -106 -60
-56 -28 -117 -62 -137 -75 -20 -14 -44 -25 -53 -25 -9 0 -23 -8 -33 -19 -9
-10 -36 -26 -59 -36 -23 -10 -52 -27 -63 -38 -22 -18 -34 -26 -131 -79 -27
-14 -55 -33 -62 -41 -7 -9 -44 -35 -84 -58 -40 -23 -83 -52 -97 -64 -14 -12
-36 -29 -50 -38 -108 -73 -180 -127 -247 -184 -32 -27 -75 -61 -95 -76 -51
-38 -203 -170 -265 -231 -28 -28 -113 -112 -190 -187 -123 -122 -200 -203
-368 -388 -28 -31 -71 -83 -95 -116 -25 -33 -68 -87 -96 -120 -28 -33 -73 -91
-99 -130 -47 -69 -66 -95 -115 -158 -14 -18 -33 -48 -43 -67 -9 -19 -33 -55
-52 -80 -19 -25 -48 -70 -64 -101 -16 -30 -36 -61 -45 -68 -9 -8 -16 -19 -16
-25 0 -7 -13 -30 -30 -52 -16 -21 -30 -44 -30 -50 0 -5 -13 -28 -29 -50 -15
-21 -31 -51 -35 -66 -3 -14 -17 -39 -30 -55 -13 -15 -27 -39 -31 -53 -4 -14
-20 -46 -36 -71 -16 -25 -29 -52 -29 -60 0 -8 -14 -34 -30 -58 -17 -24 -30
-53 -30 -65 0 -12 -14 -41 -30 -65 -17 -24 -30 -53 -30 -65 0 -12 -14 -41 -30
-65 -17 -24 -30 -54 -30 -66 0 -12 -13 -46 -29 -76 -15 -30 -31 -72 -35 -94
-4 -21 -17 -52 -28 -68 -11 -15 -26 -55 -34 -88 -8 -33 -21 -71 -30 -84 -9
-14 -23 -55 -30 -92 -8 -36 -23 -80 -34 -98 -11 -17 -22 -58 -26 -91 -4 -32
-18 -79 -30 -104 -14 -27 -28 -79 -34 -123 -5 -42 -19 -96 -31 -119 -15 -29
-24 -71 -29 -138 -4 -53 -13 -107 -20 -120 -24 -45 -32 -87 -40 -225 -6 -105
-14 -155 -31 -200 -21 -56 -23 -84 -32 -438 -6 -244 -6 -518 1 -775 9 -374 11
-401 32 -457 17 -46 24 -94 30 -201 6 -113 12 -150 30 -190 15 -32 26 -81 31
-141 5 -61 15 -106 29 -133 12 -23 25 -76 30 -120 5 -48 18 -98 33 -127 13
-26 27 -72 31 -102 4 -30 18 -75 30 -100 13 -25 27 -71 31 -101 4 -30 17 -73
30 -95 12 -22 26 -56 30 -75 4 -19 17 -53 30 -75 13 -22 27 -58 31 -80 4 -22
20 -64 35 -94 16 -30 29 -63 29 -74 0 -11 13 -43 29 -71 16 -28 34 -68 40 -88
7 -20 19 -42 26 -48 8 -7 20 -31 26 -54 6 -22 21 -57 34 -76 13 -19 27 -48 31
-65 4 -16 15 -41 26 -54 10 -14 27 -43 38 -65 11 -23 35 -68 54 -101 20 -33
44 -79 56 -102 11 -23 25 -45 31 -49 6 -4 20 -27 31 -53 11 -25 28 -55 37 -66
10 -11 37 -54 61 -95 24 -41 55 -88 68 -105 13 -16 46 -64 73 -105 27 -41 71
-104 99 -140 27 -36 65 -85 83 -110 17 -25 42 -56 54 -70 27 -31 133 -155 230
-270 39 -47 113 -129 165 -182 77 -82 98 -98 123 -98 17 0 35 4 41 8 27 19 73
101 79 142 4 25 17 63 30 85 12 22 26 56 30 75 4 19 17 53 30 75 12 22 26 51
30 65 8 28 53 127 96 212 16 31 29 63 29 71 0 8 12 32 26 53 15 21 31 55 36
74 6 18 20 48 33 65 12 16 28 47 34 67 7 21 17 40 22 44 5 3 22 31 38 62 60
121 126 237 152 267 9 11 20 30 23 42 4 12 20 38 36 58 17 21 30 43 30 49 0 6
14 29 30 50 17 22 30 44 30 49 0 5 12 23 26 41 14 17 46 63 70 101 24 39 54
82 67 96 12 14 38 51 57 83 19 31 58 85 85 119 28 34 70 89 95 122 24 33 79
101 120 150 42 50 85 102 95 116 69 93 285 327 449 488 200 195 215 212 222
250 10 51 -3 160 -30 242 -20 65 -24 101 -30 287 -4 146 -13 256 -28 350 -20
121 -23 172 -22 447 0 270 3 327 22 445 14 84 26 218 31 355 8 178 13 232 30
283 14 41 24 111 30 200 7 101 15 149 30 183 12 26 25 88 31 145 6 54 20 121
31 147 11 27 25 90 30 140 6 55 20 112 33 142 13 27 26 79 30 115 4 36 16 79
27 97 11 17 26 66 34 107 8 42 23 93 34 114 10 21 22 58 26 84 4 26 20 73 36
105 16 32 29 69 29 83 0 14 14 52 30 85 16 33 30 69 30 80 0 11 14 47 30 80
16 33 30 67 30 76 0 10 14 43 30 74 17 31 30 64 30 72 0 9 13 39 29 67 16 28
32 65 35 82 4 17 18 46 32 65 13 18 24 39 24 47 0 8 13 40 29 71 16 31 50 99
76 151 53 109 91 180 123 230 12 19 22 43 22 52 0 9 11 30 25 46 14 17 31 45
37 64 6 18 20 44 30 58 21 27 115 182 149 245 12 22 29 49 38 60 10 11 37 54
61 95 24 41 53 86 65 100 12 14 43 57 68 96 26 39 54 77 62 84 8 7 15 18 15
25 0 7 7 18 16 26 8 7 38 47 66 88 28 42 74 103 102 136 28 33 71 87 96 120
24 33 96 120 160 193 63 73 146 170 185 215 38 45 173 186 300 313 200 199
296 287 488 447 21 18 57 49 80 70 23 21 57 50 75 64 61 48 35 82 -84 109 -55
13 -146 17 -459 19 -214 2 -419 0 -455 -5z"/>
<path d="M19990 30810 c-142 -6 -209 -12 -245 -25 -30 -10 -122 -22 -230 -30
-131 -10 -196 -20 -239 -35 -33 -12 -97 -24 -145 -27 -56 -4 -105 -14 -143
-29 -31 -13 -95 -28 -143 -33 -56 -7 -98 -18 -120 -31 -18 -11 -63 -24 -102
-29 -38 -5 -91 -20 -118 -33 -28 -14 -72 -28 -99 -32 -27 -3 -65 -15 -84 -27
-20 -11 -60 -25 -91 -31 -31 -5 -74 -20 -96 -33 -22 -13 -56 -26 -75 -30 -19
-4 -53 -17 -75 -30 -22 -12 -56 -26 -75 -30 -19 -4 -53 -17 -75 -30 -22 -12
-58 -28 -80 -35 -22 -7 -51 -21 -64 -31 -13 -11 -42 -24 -65 -30 -22 -6 -53
-22 -69 -35 -16 -13 -37 -24 -46 -24 -10 0 -36 -12 -57 -26 -21 -15 -53 -31
-71 -36 -18 -5 -45 -19 -60 -32 -15 -12 -42 -27 -58 -33 -17 -6 -48 -22 -69
-37 -21 -14 -43 -26 -49 -26 -6 0 -25 -11 -43 -25 -18 -14 -37 -25 -43 -25 -5
0 -23 -11 -39 -25 -16 -13 -49 -34 -73 -45 -24 -11 -64 -36 -89 -55 -25 -19
-65 -46 -90 -60 -46 -26 -72 -45 -178 -127 -33 -25 -70 -52 -83 -59 -13 -6
-51 -35 -84 -64 -33 -28 -69 -57 -81 -65 -54 -38 -113 -85 -154 -124 -25 -23
-83 -76 -130 -117 -98 -85 -399 -385 -510 -508 -41 -46 -94 -104 -118 -129
-23 -26 -68 -81 -99 -122 -32 -41 -77 -99 -102 -128 -24 -29 -65 -83 -90 -121
-25 -37 -66 -94 -91 -127 -25 -32 -56 -77 -70 -100 -14 -23 -43 -69 -65 -101
-22 -32 -46 -71 -53 -88 -7 -16 -21 -39 -31 -50 -20 -23 -91 -140 -91 -150 0
-3 -11 -21 -24 -38 -13 -18 -28 -46 -33 -62 -6 -17 -22 -48 -37 -69 -14 -21
-26 -45 -26 -53 0 -8 -10 -29 -22 -46 -33 -46 -95 -170 -103 -205 -3 -16 -17
-44 -31 -63 -13 -18 -24 -41 -24 -51 0 -11 -16 -49 -35 -85 -19 -36 -35 -73
-35 -81 0 -8 -11 -34 -24 -56 -13 -23 -26 -59 -30 -81 -4 -22 -18 -59 -31 -81
-14 -23 -27 -61 -31 -85 -3 -24 -17 -62 -29 -84 -13 -22 -28 -67 -34 -99 -6
-32 -20 -73 -31 -90 -11 -18 -24 -62 -29 -98 -5 -36 -19 -84 -31 -107 -12 -24
-25 -76 -30 -121 -5 -45 -18 -97 -31 -121 -15 -29 -24 -73 -30 -145 -5 -63
-17 -124 -30 -156 -16 -40 -24 -87 -30 -195 -5 -99 -14 -162 -29 -210 -20 -60
-23 -103 -31 -383 -10 -330 -7 -391 17 -410 20 -17 86 -7 122 18 15 12 41 24
58 28 16 3 54 19 84 34 112 57 186 89 220 96 19 3 53 17 75 29 22 13 59 26 82
30 23 4 53 15 67 26 13 10 51 25 85 33 33 8 75 23 93 34 18 11 64 25 101 30
37 6 82 20 100 30 18 11 60 24 94 30 33 6 80 20 102 32 23 11 75 25 116 30 41
5 93 19 116 30 24 13 77 25 132 31 50 6 114 19 141 30 28 11 94 24 146 29 52
6 133 21 180 34 58 17 124 26 210 31 69 3 170 16 225 27 85 17 157 22 465 28
201 5 433 9 517 9 l151 1 42 35 c41 34 81 83 125 151 31 48 330 406 429 514
174 188 647 647 754 731 23 19 91 75 150 124 59 50 145 117 191 150 46 33 100
74 121 90 38 31 89 68 148 108 18 12 83 56 145 98 62 41 125 84 141 95 15 10
47 30 71 44 24 14 74 45 111 70 83 54 113 72 181 106 29 14 55 30 59 35 3 5
31 23 62 39 31 17 64 34 72 39 8 5 35 19 60 32 92 45 127 65 190 111 36 25 83
51 105 57 22 6 56 22 75 36 19 14 44 25 56 25 11 0 45 13 75 29 30 15 70 32
89 36 19 4 54 18 77 31 23 13 48 24 56 24 8 0 38 13 68 29 30 15 78 34 108 40
29 6 66 20 81 31 16 11 48 24 72 28 24 5 65 21 93 35 27 15 59 27 70 27 11 0
45 12 75 26 30 14 84 30 120 35 36 5 83 19 104 30 22 11 66 25 99 30 32 5 80
20 105 33 26 14 76 27 112 31 35 3 89 17 120 29 31 13 89 26 133 30 44 4 102
16 129 27 28 11 101 26 162 34 61 7 134 22 161 33 34 13 97 24 190 31 77 6
177 20 223 31 65 15 144 22 355 30 150 5 319 15 377 20 212 21 335 22 585 5
276 -19 633 -30 671 -21 57 15 20 76 -173 284 -180 194 -425 432 -518 503 -16
13 -86 71 -155 129 -69 59 -154 126 -190 150 -36 25 -85 62 -110 84 -25 21
-67 52 -95 68 -27 16 -70 45 -95 63 -47 36 -86 61 -235 150 -49 29 -101 62
-115 73 -14 10 -45 29 -70 41 -25 12 -58 29 -75 38 -16 8 -43 23 -60 31 -16 8
-61 33 -100 55 -38 21 -87 45 -108 53 -21 7 -50 22 -65 33 -15 10 -41 22 -58
25 -17 4 -46 18 -64 31 -18 13 -47 27 -64 31 -17 3 -49 17 -71 29 -22 13 -56
26 -75 30 -19 4 -59 21 -89 36 -30 16 -65 29 -79 29 -14 0 -44 11 -68 25 -23
14 -66 30 -96 36 -29 6 -67 20 -84 30 -17 10 -60 23 -95 28 -35 5 -81 19 -101
31 -20 12 -67 26 -103 31 -36 5 -85 19 -108 30 -23 12 -76 26 -120 30 -43 5
-104 20 -135 33 -38 16 -88 26 -149 30 -54 4 -124 17 -167 31 -57 18 -106 26
-217 31 -93 5 -167 14 -209 26 -111 33 -597 45 -1080 28z"/>
<path d="M23922 26509 c-40 -5 -98 -16 -130 -24 -32 -9 -130 -20 -222 -24
-134 -7 -175 -13 -220 -31 -35 -14 -92 -25 -157 -30 -67 -6 -119 -16 -150 -30
-26 -12 -86 -26 -133 -31 -53 -6 -98 -17 -120 -31 -20 -11 -67 -24 -109 -30
-40 -5 -94 -19 -120 -32 -25 -13 -66 -27 -91 -31 -25 -4 -66 -18 -92 -31 -25
-13 -66 -26 -90 -30 -24 -3 -62 -17 -84 -30 -23 -13 -61 -26 -85 -30 -24 -4
-71 -20 -104 -36 -33 -15 -69 -28 -81 -28 -12 0 -39 -12 -60 -27 -21 -14 -56
-30 -78 -35 -21 -5 -50 -18 -64 -28 -13 -11 -43 -25 -65 -31 -23 -6 -52 -19
-65 -29 -13 -11 -40 -24 -60 -31 -20 -6 -46 -19 -57 -29 -11 -9 -41 -25 -67
-34 -26 -10 -51 -22 -54 -27 -3 -6 -29 -21 -57 -35 -77 -37 -156 -82 -184
-104 -14 -11 -30 -20 -34 -20 -5 0 -28 -13 -51 -30 -22 -16 -46 -30 -51 -30
-6 0 -20 -9 -31 -19 -12 -11 -60 -43 -107 -73 -47 -29 -112 -73 -144 -97 -32
-24 -67 -49 -79 -55 -22 -12 -54 -36 -167 -126 -37 -30 -89 -71 -115 -90 -26
-19 -57 -44 -68 -56 -12 -11 -46 -42 -76 -69 -116 -101 -257 -232 -308 -284
-39 -41 -52 -62 -50 -80 4 -32 84 -87 140 -96 24 -4 63 -17 88 -30 25 -12 61
-26 80 -30 19 -4 49 -16 66 -26 18 -11 56 -28 85 -38 30 -10 70 -28 89 -40 19
-11 42 -21 51 -21 9 0 34 -12 55 -26 21 -15 55 -31 74 -36 18 -6 48 -20 65
-32 16 -13 49 -28 71 -34 23 -7 47 -19 54 -27 6 -7 28 -19 48 -26 20 -6 52
-22 70 -36 17 -13 47 -29 65 -35 17 -6 41 -19 52 -28 11 -10 31 -21 45 -25 25
-7 51 -22 151 -88 30 -20 59 -37 64 -37 4 0 22 -11 39 -24 17 -13 49 -33 71
-45 42 -23 77 -45 192 -122 104 -70 107 -71 168 -118 32 -24 67 -49 79 -55 19
-10 113 -82 126 -97 3 -3 25 -19 50 -36 40 -28 71 -52 185 -147 17 -14 62 -51
101 -83 152 -124 316 -276 499 -461 104 -106 203 -200 219 -209 36 -19 137
-10 216 18 45 16 98 22 280 30 124 5 270 16 325 25 187 29 326 36 590 30 195
-4 289 -11 378 -26 74 -13 202 -24 345 -30 176 -7 244 -14 302 -30 41 -11 131
-24 200 -29 85 -6 142 -16 177 -30 29 -11 94 -25 145 -31 51 -6 125 -22 163
-35 39 -12 102 -26 140 -30 39 -4 95 -17 125 -30 30 -12 80 -26 110 -30 30 -4
80 -18 110 -31 30 -13 83 -28 116 -33 34 -5 79 -18 101 -29 21 -11 64 -25 96
-31 31 -5 78 -22 104 -36 26 -14 58 -25 70 -25 13 0 52 -13 86 -30 35 -16 73
-30 84 -30 11 0 45 -13 76 -30 31 -16 65 -30 75 -30 11 0 43 -13 73 -29 30
-15 68 -32 86 -35 18 -4 42 -15 55 -25 13 -10 48 -26 79 -35 31 -8 62 -22 68
-30 7 -8 29 -20 49 -27 20 -6 57 -22 82 -34 25 -13 88 -44 140 -70 52 -25 122
-61 155 -80 33 -19 88 -48 121 -64 34 -16 64 -34 68 -39 3 -6 23 -16 44 -23
20 -6 46 -19 57 -29 11 -10 44 -31 74 -46 95 -51 105 -57 145 -86 21 -15 44
-28 51 -28 7 0 20 -9 30 -20 10 -11 56 -40 101 -65 46 -25 86 -50 89 -55 3 -5
36 -28 73 -52 94 -62 102 -67 168 -117 32 -25 88 -65 124 -89 36 -25 68 -49
71 -54 3 -5 19 -19 36 -31 95 -68 194 -146 234 -185 25 -24 58 -51 72 -61 80
-52 319 -272 572 -527 215 -216 258 -262 335 -358 167 -208 231 -276 258 -276
49 0 74 167 79 540 4 270 3 306 -17 425 -13 77 -25 210 -30 325 -7 162 -13
208 -33 275 -14 47 -27 120 -30 175 -4 63 -14 117 -30 160 -13 36 -27 99 -30
141 -4 47 -16 96 -31 130 -13 30 -27 83 -31 118 -3 37 -17 84 -31 110 -13 26
-27 69 -30 96 -4 28 -17 70 -30 95 -12 25 -27 72 -33 104 -6 32 -20 72 -30 90
-11 17 -25 53 -30 78 -6 26 -22 63 -36 84 -14 20 -25 49 -25 63 0 14 -11 46
-24 71 -13 25 -31 68 -40 97 -9 28 -24 57 -31 63 -8 7 -20 31 -26 54 -6 22
-21 57 -34 76 -13 19 -27 49 -31 65 -4 17 -15 42 -26 57 -10 15 -24 42 -30 60
-6 18 -19 42 -29 53 -9 11 -29 45 -44 75 -14 30 -41 82 -60 115 -18 33 -39 71
-47 85 -7 14 -25 43 -40 64 -16 21 -28 44 -28 50 0 6 -16 31 -35 55 -19 24
-35 47 -35 51 0 5 -18 34 -40 66 -23 33 -48 70 -57 84 -51 80 -101 150 -134
190 -20 25 -58 77 -85 115 -26 39 -98 129 -159 200 -61 72 -127 150 -147 175
-59 73 -384 399 -498 498 -163 142 -369 313 -437 362 -34 25 -95 69 -135 98
-136 99 -227 161 -260 178 -18 9 -41 24 -51 32 -22 19 -72 50 -142 88 -27 15
-52 30 -55 35 -6 9 -94 58 -170 94 -30 15 -62 32 -70 39 -8 7 -31 19 -50 26
-19 7 -47 22 -62 32 -15 10 -42 24 -60 30 -18 6 -44 19 -58 28 -14 10 -44 23
-66 29 -23 6 -52 20 -66 30 -13 11 -42 24 -64 30 -22 6 -55 22 -74 36 -19 14
-43 25 -54 25 -12 0 -48 13 -81 28 -33 16 -78 32 -100 36 -22 4 -58 18 -80 31
-22 13 -64 28 -94 34 -29 6 -65 20 -80 30 -14 10 -53 22 -86 26 -33 4 -80 18
-105 31 -25 13 -75 28 -112 33 -36 5 -88 19 -115 31 -26 12 -82 25 -123 30
-41 5 -97 19 -125 31 -35 15 -81 24 -160 30 -74 5 -128 15 -165 30 -44 17 -87
23 -220 30 -127 6 -181 13 -235 30 -68 22 -83 22 -575 25 -278 1 -538 -2 -578
-7z"/>
<path d="M5988 25365 c-193 -151 -548 -511 -783 -795 -60 -72 -115 -137 -121
-144 -6 -6 -23 -29 -37 -51 -52 -78 -61 -90 -87 -120 -15 -16 -35 -43 -46 -59
-10 -16 -30 -45 -44 -66 -14 -20 -35 -52 -47 -71 -12 -19 -31 -47 -43 -64 -51
-74 -100 -151 -100 -158 0 -5 -11 -23 -25 -41 -14 -18 -25 -38 -25 -44 0 -6
-13 -26 -29 -44 -15 -18 -34 -50 -40 -70 -7 -21 -17 -41 -23 -44 -5 -4 -23
-34 -40 -68 -16 -33 -45 -88 -63 -121 -19 -33 -39 -71 -45 -85 -6 -14 -23 -47
-36 -73 -14 -27 -34 -73 -45 -102 -11 -29 -26 -59 -34 -65 -8 -7 -15 -20 -15
-30 0 -10 -13 -44 -30 -75 -16 -31 -30 -65 -30 -75 0 -10 -13 -43 -30 -74 -16
-31 -32 -73 -36 -94 -4 -20 -20 -61 -35 -91 -16 -30 -29 -66 -29 -81 0 -15
-11 -49 -25 -76 -14 -27 -28 -71 -31 -99 -4 -27 -19 -77 -35 -110 -17 -35 -29
-76 -29 -100 0 -22 -12 -65 -26 -95 -16 -35 -29 -85 -34 -137 -5 -45 -18 -104
-30 -130 -15 -32 -25 -82 -30 -151 -5 -61 -19 -131 -33 -175 -20 -57 -26 -102
-32 -217 -4 -100 -13 -170 -28 -225 -21 -78 -22 -96 -22 -650 0 -563 0 -571
23 -648 16 -58 24 -117 28 -220 5 -113 11 -157 31 -217 16 -46 28 -113 33
-175 5 -73 13 -112 30 -144 14 -29 25 -74 30 -132 6 -63 15 -99 30 -124 13
-21 26 -64 31 -105 4 -38 19 -91 32 -117 13 -27 27 -70 31 -98 3 -27 17 -70
30 -95 13 -25 26 -65 30 -89 4 -24 17 -62 31 -85 13 -22 27 -59 30 -81 4 -22
18 -56 30 -75 13 -19 26 -51 30 -70 4 -19 20 -60 36 -90 16 -30 29 -62 29 -71
0 -9 11 -32 24 -52 14 -20 29 -51 34 -69 5 -18 21 -51 36 -72 14 -21 26 -47
26 -56 0 -9 12 -35 26 -56 15 -21 31 -52 37 -69 5 -16 15 -37 22 -45 7 -8 35
-58 63 -111 28 -53 61 -112 74 -131 13 -20 31 -49 40 -64 49 -81 116 -184 141
-215 15 -20 27 -40 27 -46 0 -6 13 -28 30 -49 54 -72 81 -109 120 -164 65 -91
92 -127 155 -204 33 -41 77 -95 97 -121 109 -138 577 -619 707 -727 36 -29
110 -90 166 -135 55 -45 114 -94 130 -108 29 -25 101 -78 174 -127 18 -13 50
-37 70 -54 33 -27 80 -59 158 -106 15 -10 55 -35 88 -57 33 -22 71 -45 84 -51
13 -6 37 -21 52 -35 16 -13 39 -27 51 -30 13 -4 37 -18 54 -30 30 -23 112 -68
344 -187 63 -33 120 -63 125 -68 6 -4 28 -13 50 -20 22 -7 58 -22 80 -35 22
-12 54 -25 70 -29 17 -4 47 -18 68 -32 20 -13 52 -27 70 -30 17 -4 48 -17 67
-29 19 -13 55 -26 80 -30 25 -4 72 -20 105 -36 33 -16 69 -29 80 -29 11 0 45
-12 75 -26 30 -14 80 -30 110 -36 30 -5 71 -19 92 -29 21 -11 72 -24 114 -29
45 -6 90 -18 110 -30 18 -12 71 -27 121 -34 48 -8 106 -22 128 -31 21 -9 93
-23 160 -30 66 -7 145 -22 175 -33 40 -15 92 -22 195 -27 84 -4 185 -17 253
-31 101 -22 143 -25 369 -27 244 -2 255 -1 269 18 21 27 13 81 -20 129 -14 21
-26 45 -26 53 0 8 -16 47 -35 86 -19 39 -35 76 -35 82 0 6 -11 26 -24 43 -13
18 -26 51 -30 74 -4 22 -17 59 -30 82 -13 22 -27 59 -31 81 -3 22 -17 58 -30
80 -13 22 -26 58 -30 80 -4 22 -18 58 -31 81 -13 23 -27 68 -33 101 -5 34 -18
78 -29 100 -11 21 -25 65 -31 97 -6 33 -20 75 -32 94 -12 21 -24 66 -29 113
-5 45 -18 96 -31 121 -14 27 -25 75 -31 128 -4 47 -19 112 -32 145 -15 38 -25
91 -29 145 -4 53 -15 110 -30 150 -20 52 -26 93 -31 208 -5 93 -13 165 -26
205 -31 104 -31 110 -38 665 l-7 539 -28 40 c-28 41 -85 90 -178 153 -50 34
-64 45 -147 118 -20 18 -77 65 -127 104 -236 186 -737 686 -950 948 -33 41
-78 93 -99 117 -21 23 -48 56 -60 72 -50 68 -143 190 -181 235 -68 83 -365
516 -365 532 0 5 -13 25 -28 44 -16 19 -46 64 -67 100 -21 36 -51 85 -67 109
-15 25 -28 49 -28 54 0 6 -11 24 -24 42 -13 17 -31 47 -40 66 -9 19 -32 61
-51 94 -20 33 -47 83 -60 112 -13 28 -28 54 -34 57 -5 3 -17 28 -27 54 -10 26
-23 54 -30 62 -8 9 -20 35 -29 59 -8 23 -24 54 -35 68 -11 14 -25 44 -31 67
-6 22 -19 52 -29 66 -10 14 -24 45 -31 70 -7 25 -23 61 -35 80 -13 19 -26 49
-30 65 -4 17 -17 48 -29 70 -13 22 -26 56 -30 75 -4 19 -20 62 -36 95 -16 33
-29 70 -29 83 0 12 -13 48 -30 79 -16 31 -30 66 -30 78 0 12 -12 44 -26 71
-14 27 -30 77 -35 112 -5 35 -18 81 -30 103 -11 23 -25 68 -30 101 -5 33 -20
81 -33 106 -13 26 -27 74 -31 107 -4 33 -17 85 -30 115 -13 31 -26 89 -30 135
-4 48 -16 102 -30 135 -16 36 -27 90 -34 155 -5 59 -18 119 -30 147 -14 34
-23 86 -30 185 -6 88 -17 163 -31 207 -18 56 -23 108 -30 290 -5 121 -18 298
-29 391 -11 94 -22 222 -26 285 -9 140 11 554 32 665 20 112 30 410 13 430
-20 24 -41 18 -102 -30z"/>
<path d="M16950 23073 c-19 -2 -84 -12 -145 -22 -60 -11 -181 -22 -267 -25
-130 -5 -169 -10 -225 -29 -41 -15 -106 -27 -163 -31 -66 -5 -111 -15 -146
-31 -29 -13 -83 -26 -125 -30 -44 -4 -95 -17 -126 -31 -28 -13 -81 -28 -117
-33 -37 -5 -81 -18 -99 -29 -17 -11 -58 -25 -91 -31 -32 -6 -73 -20 -91 -31
-18 -11 -56 -25 -86 -30 -29 -6 -70 -21 -89 -35 -20 -14 -47 -25 -61 -25 -14
0 -43 -9 -64 -21 -22 -11 -64 -29 -93 -39 -29 -11 -65 -28 -80 -38 -15 -11
-40 -22 -57 -26 -16 -4 -46 -18 -66 -31 -20 -13 -53 -28 -74 -34 -21 -5 -47
-19 -59 -29 -12 -11 -38 -25 -58 -31 -21 -7 -40 -17 -44 -22 -3 -5 -31 -23
-62 -39 -31 -17 -79 -43 -107 -60 -27 -16 -68 -39 -90 -51 -22 -11 -49 -29
-60 -38 -11 -10 -54 -37 -95 -61 -41 -24 -89 -55 -106 -70 -17 -14 -56 -41
-88 -60 -32 -19 -87 -60 -124 -90 -37 -30 -89 -71 -115 -90 -134 -97 -355
-297 -576 -524 -75 -77 -147 -151 -161 -165 -37 -38 -209 -241 -250 -296 -19
-26 -60 -78 -90 -116 -30 -37 -71 -94 -90 -125 -19 -32 -47 -71 -61 -88 -14
-17 -34 -44 -43 -61 -33 -57 -61 -103 -84 -132 -12 -16 -32 -48 -45 -71 -74
-139 -140 -252 -147 -257 -5 -3 -14 -22 -21 -43 -6 -20 -18 -44 -26 -53 -8 -9
-23 -41 -34 -70 -11 -29 -29 -63 -39 -76 -10 -13 -22 -38 -26 -56 -3 -18 -15
-45 -26 -60 -11 -16 -27 -49 -34 -74 -8 -25 -22 -59 -33 -77 -11 -17 -22 -49
-26 -71 -4 -22 -18 -57 -31 -78 -14 -21 -29 -59 -34 -86 -5 -26 -18 -64 -30
-83 -11 -19 -25 -61 -31 -94 -6 -32 -20 -75 -31 -94 -11 -19 -24 -65 -29 -101
-4 -37 -19 -87 -32 -112 -17 -30 -27 -71 -32 -124 -4 -45 -16 -95 -27 -117
-14 -26 -24 -81 -33 -165 -8 -74 -22 -147 -34 -177 -16 -41 -21 -84 -26 -215
-4 -108 -14 -200 -28 -269 -20 -96 -22 -133 -22 -440 1 -302 3 -345 22 -440
14 -67 24 -165 28 -269 5 -138 10 -174 30 -227 16 -41 27 -101 33 -176 7 -81
16 -126 30 -155 12 -22 24 -72 28 -109 4 -41 17 -89 31 -117 14 -29 28 -79 32
-122 6 -47 16 -84 29 -102 11 -16 26 -58 32 -93 6 -35 20 -76 31 -91 11 -15
23 -49 28 -76 12 -59 20 -81 42 -113 9 -14 20 -42 24 -64 3 -21 17 -55 30 -75
13 -20 26 -52 30 -71 4 -19 16 -48 27 -63 11 -16 26 -49 34 -73 7 -25 22 -57
32 -72 11 -15 25 -44 31 -64 7 -20 20 -47 30 -60 10 -13 22 -37 28 -53 6 -17
22 -48 37 -69 14 -21 26 -43 26 -48 0 -5 19 -40 43 -78 66 -109 97 -161 161
-267 33 -54 64 -102 70 -108 6 -5 33 -44 61 -85 27 -41 67 -97 88 -125 21 -27
64 -84 95 -125 31 -41 59 -77 62 -80 3 -3 55 -60 114 -128 135 -153 368 -398
416 -435 19 -15 40 -33 45 -40 6 -7 48 -46 95 -87 46 -41 107 -96 134 -122 28
-27 53 -48 56 -48 9 0 106 -73 214 -160 17 -14 58 -44 91 -65 33 -22 75 -52
93 -67 18 -16 37 -28 43 -28 6 0 30 -13 54 -30 24 -16 48 -30 53 -30 5 0 17
-9 27 -20 17 -19 66 -49 175 -106 25 -13 72 -40 105 -59 33 -19 83 -45 112
-59 28 -14 54 -30 58 -35 3 -6 26 -16 50 -22 24 -6 59 -22 76 -35 18 -13 38
-24 43 -24 6 0 45 -16 86 -36 41 -20 98 -47 125 -60 28 -13 71 -28 96 -32 26
-5 62 -18 80 -30 19 -11 54 -25 79 -32 25 -6 65 -21 90 -34 25 -13 67 -27 95
-31 27 -4 70 -17 95 -30 25 -12 71 -25 103 -29 32 -3 81 -18 108 -31 28 -15
76 -28 111 -32 35 -3 91 -16 126 -29 37 -14 98 -26 145 -30 45 -3 111 -14 147
-24 104 -29 110 -30 297 -40 98 -5 219 -17 268 -27 75 -15 144 -18 420 -18
289 0 339 2 400 19 47 12 131 21 256 26 149 7 198 13 245 30 35 12 105 25 171
30 73 6 133 18 175 33 35 13 92 27 128 31 36 4 90 18 120 31 30 14 82 29 115
34 34 5 76 18 95 29 19 11 63 25 98 31 35 5 78 19 95 30 18 10 55 24 84 30 28
6 68 22 89 36 20 14 47 25 59 25 12 0 43 11 68 25 25 13 65 29 88 35 23 6 58
22 78 35 20 12 53 28 73 34 20 7 42 19 49 27 6 8 35 21 64 30 30 8 59 21 65
29 6 8 33 21 60 30 27 9 54 23 61 31 6 8 33 25 58 38 69 34 144 76 161 90 8 6
31 20 50 29 19 10 49 27 66 40 18 12 58 39 90 60 145 93 269 180 332 233 20
17 75 59 122 94 47 34 99 76 115 91 17 16 73 68 125 116 240 221 600 598 666
698 15 22 50 68 78 102 70 85 100 126 152 208 25 38 49 72 53 75 5 3 31 41 58
86 27 44 59 93 71 108 11 15 24 37 28 49 3 12 12 29 19 37 14 16 54 87 91 161
13 25 30 52 38 58 8 7 22 34 31 61 9 27 23 54 30 60 8 7 20 30 26 53 6 22 21
56 34 76 12 20 28 53 34 73 7 20 19 42 27 49 8 6 21 37 30 67 9 31 27 76 40
100 13 25 24 54 24 65 0 11 13 43 29 71 16 28 32 69 36 91 4 22 16 54 26 72
11 17 24 60 30 95 6 35 19 79 30 98 12 19 25 61 30 95 5 33 20 85 34 115 13
30 27 87 31 125 4 39 17 95 30 126 16 40 26 92 33 170 6 68 18 138 31 174 17
48 22 91 26 220 4 114 11 187 27 255 20 87 22 121 22 420 0 287 -3 341 -22
460 -12 74 -24 201 -27 282 -5 117 -11 163 -30 220 -13 41 -26 114 -30 167 -5
62 -15 113 -30 150 -13 31 -26 87 -30 125 -4 40 -16 87 -31 115 -13 26 -28 78
-33 117 -5 38 -19 85 -30 104 -11 19 -25 63 -30 97 -6 34 -20 75 -31 90 -11
15 -24 52 -30 82 -6 29 -21 67 -33 83 -11 17 -25 51 -30 77 -4 25 -19 69 -32
96 -13 28 -40 84 -60 125 -20 41 -36 80 -36 85 0 6 -11 26 -24 46 -13 19 -29
54 -35 77 -7 23 -16 44 -22 47 -5 4 -21 30 -35 58 -14 29 -40 79 -59 112 -19
33 -46 80 -59 105 -57 109 -87 158 -106 175 -11 10 -20 22 -20 26 0 5 -20 39
-45 76 -53 80 -66 100 -114 173 -29 46 -102 141 -121 160 -8 8 -84 113 -102
140 -8 14 -35 46 -59 72 -62 66 -104 113 -179 198 -36 41 -81 90 -100 109 -98
99 -331 321 -373 356 -27 22 -69 60 -95 84 -44 41 -125 105 -182 144 -14 9
-45 33 -70 52 -25 19 -76 56 -115 82 -38 26 -87 62 -108 79 -22 18 -70 49
-108 69 -37 19 -71 40 -74 46 -4 5 -27 21 -53 34 -26 14 -78 45 -117 70 -38
24 -82 47 -96 50 -15 3 -35 15 -44 25 -10 11 -34 25 -54 31 -20 7 -46 20 -59
30 -13 10 -45 25 -72 34 -27 9 -54 23 -61 31 -6 8 -35 21 -64 30 -30 8 -59 22
-65 30 -7 8 -37 21 -68 30 -30 9 -70 25 -88 36 -19 11 -53 24 -76 29 -22 6
-53 19 -68 29 -15 11 -52 25 -81 31 -30 6 -68 20 -85 30 -18 11 -58 24 -90 30
-33 6 -75 20 -94 31 -19 11 -66 25 -105 30 -38 5 -93 20 -121 33 -28 12 -80
26 -115 30 -35 4 -91 17 -124 30 -40 15 -94 26 -160 30 -66 5 -122 16 -163 31
-53 21 -88 25 -230 30 -92 3 -196 13 -232 20 -100 23 -283 34 -530 32 -124 -1
-241 -3 -260 -5z"/>
<path d="M24261 20612 c-17 -32 -14 -52 20 -122 74 -156 88 -187 98 -218 6
-18 19 -45 29 -60 11 -15 22 -45 26 -67 4 -22 18 -58 31 -80 12 -22 26 -58 30
-80 3 -22 17 -58 30 -80 13 -22 27 -58 31 -80 4 -22 20 -64 35 -94 17 -31 29
-69 29 -91 0 -20 11 -59 25 -86 14 -27 29 -74 34 -105 5 -32 19 -76 32 -100
12 -24 25 -75 30 -114 4 -38 19 -95 32 -125 15 -33 27 -84 31 -128 3 -41 17
-99 30 -130 16 -38 26 -88 30 -149 4 -58 15 -116 30 -155 19 -49 26 -94 31
-198 6 -95 15 -160 32 -220 24 -83 25 -96 34 -635 5 -302 12 -560 14 -572 6
-27 106 -128 146 -149 16 -8 60 -40 98 -72 38 -31 86 -70 107 -87 230 -185
360 -304 631 -575 207 -207 405 -424 485 -530 14 -19 43 -54 65 -76 21 -23 64
-75 95 -115 170 -222 226 -296 262 -349 101 -146 237 -350 250 -375 9 -16 30
-48 47 -70 27 -36 53 -80 116 -197 12 -23 33 -57 46 -77 28 -44 37 -61 99
-176 27 -49 55 -101 63 -115 8 -14 24 -45 35 -70 12 -25 25 -52 31 -60 5 -8
19 -35 30 -60 11 -25 24 -52 30 -60 5 -8 16 -31 25 -50 9 -19 31 -66 50 -105
19 -38 34 -76 34 -83 0 -7 14 -38 30 -69 17 -31 30 -63 30 -72 0 -9 11 -32 24
-51 13 -19 28 -59 35 -88 6 -30 22 -73 36 -96 14 -24 25 -55 25 -70 0 -14 14
-52 30 -83 17 -31 30 -66 30 -78 0 -12 13 -46 29 -76 16 -31 31 -78 35 -111 3
-31 17 -78 30 -105 13 -26 27 -73 30 -103 4 -30 18 -73 30 -95 14 -24 27 -67
31 -105 4 -36 18 -90 30 -120 13 -31 26 -89 30 -130 4 -44 17 -97 31 -129 17
-38 27 -85 34 -163 6 -71 17 -125 30 -156 16 -34 24 -82 30 -177 7 -91 16
-148 31 -190 19 -52 23 -90 30 -280 4 -121 12 -265 18 -320 6 -55 17 -165 26
-244 8 -79 15 -191 15 -250 0 -170 -20 -468 -36 -556 -9 -44 -18 -159 -21
-255 -5 -163 -4 -177 14 -199 19 -23 20 -23 54 -6 19 10 45 28 59 41 14 13 55
52 91 86 36 35 114 108 174 163 120 112 485 501 520 555 13 19 55 73 94 120
39 47 95 121 126 165 30 44 71 100 90 125 19 25 49 68 65 95 17 28 47 70 66
95 19 25 43 65 54 89 11 24 32 57 45 73 14 16 25 33 25 38 0 8 39 76 86 150
12 19 25 46 29 60 4 14 20 43 36 65 15 22 31 52 34 67 4 14 15 34 26 44 10 9
24 35 30 58 6 22 19 51 30 64 10 14 24 42 29 64 6 21 22 55 35 75 14 20 25 41
25 48 0 7 13 36 28 66 16 30 34 77 41 104 7 28 19 57 27 67 9 9 22 40 30 70 7
29 25 75 39 102 14 27 25 59 25 71 0 12 12 44 26 70 14 27 28 71 31 99 3 28
17 73 30 100 14 27 29 78 34 113 5 35 20 85 33 111 15 30 26 73 30 118 3 42
16 94 30 125 16 37 26 82 30 144 4 54 16 118 31 160 18 52 26 107 34 215 5 85
16 164 26 190 28 79 37 316 33 860 -4 515 -4 515 -31 625 -15 63 -30 166 -35
240 -7 93 -15 143 -30 176 -13 29 -24 87 -30 156 -7 76 -16 122 -31 151 -12
23 -25 76 -30 125 -6 52 -18 97 -30 118 -11 19 -25 66 -30 105 -6 39 -21 90
-35 115 -13 24 -26 67 -29 94 -4 28 -18 72 -32 99 -14 27 -25 59 -25 72 0 12
-13 47 -29 77 -16 30 -32 73 -36 96 -4 22 -15 51 -25 64 -10 13 -25 48 -33 79
-8 31 -24 69 -34 85 -11 15 -23 42 -27 58 -4 17 -18 46 -31 66 -13 20 -27 51
-33 70 -5 19 -21 52 -36 73 -14 21 -26 46 -26 55 0 10 -11 32 -25 51 -13 18
-30 49 -36 69 -6 20 -19 45 -29 56 -10 11 -27 40 -39 65 -33 72 -112 209 -143
249 -10 14 -27 43 -38 65 -11 23 -35 61 -55 86 -19 25 -46 66 -60 92 -13 26
-29 50 -35 53 -6 4 -22 23 -36 43 -13 21 -38 55 -55 77 -16 22 -41 58 -56 80
-14 22 -32 47 -39 55 -15 16 -38 46 -141 176 -33 44 -74 93 -89 109 -16 17
-60 66 -99 110 -194 220 -574 577 -819 770 -49 39 -96 77 -105 85 -10 8 -51
37 -91 65 -41 27 -85 58 -97 70 -26 24 -71 55 -141 98 -155 95 -200 123 -224
143 -16 13 -38 26 -50 30 -13 3 -36 16 -52 28 -35 25 -198 115 -276 152 -30
14 -62 31 -70 38 -8 7 -31 19 -50 26 -19 7 -46 21 -60 30 -14 10 -43 23 -65
30 -22 7 -59 23 -82 36 -23 13 -48 24 -55 24 -8 0 -45 16 -84 35 -38 19 -75
35 -82 35 -7 0 -32 11 -55 24 -23 13 -65 29 -93 35 -28 5 -73 22 -99 36 -27
14 -57 25 -69 25 -12 0 -46 12 -76 26 -30 14 -80 30 -110 36 -30 5 -69 18 -86
29 -17 10 -63 23 -103 29 -39 5 -91 20 -114 31 -24 13 -76 26 -121 31 -44 4
-100 18 -125 29 -30 13 -87 24 -161 31 -69 6 -135 18 -165 30 -38 15 -89 22
-211 29 -108 6 -190 16 -245 30 -74 19 -119 22 -371 26 -280 5 -287 4 -297
-15z"/>
<path d="M3586 15088 c-8 -18 -22 -82 -32 -143 -29 -168 -26 -635 4 -830 14
-87 22 -187 22 -265 0 -145 13 -248 36 -293 11 -20 20 -76 26 -155 7 -93 15
-139 32 -181 15 -34 27 -89 31 -141 5 -52 15 -100 27 -124 11 -22 26 -77 34
-123 7 -47 22 -99 33 -116 11 -18 23 -57 27 -87 4 -30 20 -82 36 -115 15 -33
28 -74 28 -91 0 -17 11 -52 25 -79 14 -26 30 -69 36 -95 6 -26 21 -63 35 -81
13 -18 24 -45 24 -59 0 -15 11 -47 23 -71 13 -24 30 -62 37 -83 7 -21 25 -63
41 -93 16 -30 29 -62 29 -71 0 -8 11 -29 24 -46 13 -17 27 -47 31 -66 4 -19
17 -48 30 -65 12 -16 27 -47 34 -67 7 -21 17 -41 23 -44 5 -4 23 -34 40 -68
43 -90 85 -165 118 -216 16 -25 41 -67 56 -95 15 -27 37 -63 50 -78 13 -16 24
-32 24 -37 0 -9 63 -105 89 -135 9 -11 34 -49 56 -85 21 -36 52 -82 69 -102
43 -51 72 -89 114 -151 19 -28 88 -113 151 -187 64 -74 128 -151 142 -170 69
-92 500 -512 630 -614 13 -10 45 -37 70 -60 73 -66 160 -135 252 -202 37 -27
84 -62 105 -77 61 -46 230 -160 276 -187 24 -14 50 -31 59 -38 25 -21 118 -76
155 -91 17 -7 32 -17 32 -21 0 -4 28 -22 63 -39 34 -18 89 -47 122 -66 33 -19
76 -42 95 -50 19 -9 46 -22 60 -30 23 -13 95 -49 255 -125 33 -16 77 -34 97
-40 20 -6 42 -17 48 -25 6 -8 36 -21 66 -30 29 -8 68 -24 86 -34 18 -11 51
-23 73 -26 22 -4 58 -17 80 -30 22 -12 64 -28 93 -34 29 -6 70 -20 90 -30 21
-11 63 -24 93 -29 31 -6 74 -20 95 -31 21 -11 70 -25 107 -30 38 -5 86 -19
108 -31 22 -11 75 -25 117 -31 42 -5 109 -21 147 -34 41 -14 105 -26 156 -29
47 -3 112 -15 145 -27 42 -15 102 -23 209 -30 83 -5 190 -19 239 -30 228 -52
1115 -52 1316 0 44 12 140 24 230 30 110 7 172 15 213 30 32 11 100 23 150 27
53 4 122 16 162 30 39 12 102 27 141 32 39 6 89 19 112 31 23 11 73 25 112 31
39 6 95 21 123 34 29 13 74 27 102 31 27 4 68 17 90 30 22 12 58 26 80 30 22
3 58 17 80 30 22 13 58 27 80 31 22 4 67 20 100 36 33 15 66 28 73 28 7 0 38
14 69 30 31 17 64 30 73 30 9 0 34 11 54 25 20 14 49 28 64 31 15 4 50 19 78
35 28 16 58 29 66 29 9 0 32 14 53 30 21 17 45 30 54 30 10 0 35 13 57 29 21
15 56 34 76 40 21 7 40 17 44 22 3 5 26 21 52 35 26 14 72 40 102 59 30 19 75
46 100 60 25 14 61 37 80 50 19 13 49 34 65 45 17 11 66 45 110 75 44 31 93
63 109 73 16 9 54 37 85 62 31 25 74 59 95 75 116 89 148 114 221 178 291 255
395 357 395 389 0 31 -86 92 -145 103 -22 3 -58 17 -80 29 -22 13 -56 26 -75
30 -34 6 -104 36 -220 95 -30 16 -68 31 -84 35 -17 4 -43 16 -58 28 -16 11
-45 24 -66 30 -20 6 -50 21 -65 34 -16 13 -37 24 -46 24 -10 0 -36 12 -57 26
-21 15 -56 33 -78 41 -22 7 -47 20 -56 27 -8 8 -62 38 -120 68 -58 30 -127 69
-155 86 -27 17 -68 41 -90 53 -22 12 -53 32 -68 45 -16 13 -33 24 -38 24 -6 0
-29 12 -52 28 -23 15 -50 32 -58 37 -9 6 -61 41 -115 78 -55 37 -135 92 -179
122 -44 30 -109 78 -144 107 -36 29 -94 75 -130 101 -176 129 -507 423 -743
660 -108 108 -209 202 -225 208 -38 15 -148 3 -236 -25 -63 -20 -101 -24 -292
-30 -121 -3 -265 -13 -320 -22 -286 -45 -669 -44 -948 1 -51 8 -189 18 -307
21 -187 5 -226 9 -301 30 -57 16 -132 28 -221 34 -97 6 -147 14 -182 29 -30
14 -87 25 -156 31 -77 6 -122 15 -151 30 -26 14 -74 25 -128 30 -55 5 -106 17
-141 33 -30 14 -82 28 -115 32 -33 4 -76 16 -95 27 -19 11 -69 26 -111 34 -42
7 -92 22 -110 33 -19 11 -56 23 -84 26 -27 4 -69 18 -91 31 -23 13 -61 26 -85
30 -24 4 -65 17 -91 30 -25 13 -68 28 -94 34 -26 6 -59 19 -74 30 -15 11 -49
24 -75 30 -26 6 -67 22 -90 35 -23 14 -50 25 -60 25 -10 0 -41 13 -69 29 -28
16 -64 32 -80 35 -17 4 -43 16 -58 28 -16 11 -45 24 -65 30 -21 6 -53 21 -72
34 -20 13 -40 24 -46 24 -6 0 -56 23 -111 51 -54 28 -116 60 -136 70 -21 11
-54 30 -74 44 -20 14 -45 25 -55 25 -9 0 -31 11 -47 25 -17 14 -45 31 -64 37
-18 6 -45 21 -60 32 -14 12 -65 44 -112 71 -107 62 -168 99 -239 147 -30 20
-70 44 -88 54 -19 9 -48 29 -66 43 -33 27 -78 59 -128 92 -16 10 -50 34 -75
54 -25 19 -76 56 -115 82 -38 26 -111 81 -161 123 -50 41 -119 98 -153 125
-35 28 -70 57 -79 65 -10 9 -33 28 -52 42 -19 14 -51 41 -70 59 -19 18 -73 66
-120 108 -266 235 -515 488 -751 764 -153 178 -200 227 -217 227 -7 0 -19 -15
-26 -32z"/>
<path d="M24544 14643 c-29 -38 -53 -95 -54 -127 0 -11 -11 -38 -24 -60 -13
-23 -27 -60 -31 -83 -3 -22 -17 -56 -30 -73 -13 -18 -27 -47 -31 -64 -3 -17
-19 -53 -34 -81 -15 -27 -30 -63 -34 -78 -4 -16 -17 -45 -30 -65 -14 -20 -27
-51 -31 -68 -3 -18 -15 -40 -26 -50 -10 -9 -24 -35 -30 -57 -6 -23 -22 -55
-35 -72 -13 -18 -24 -38 -24 -46 0 -8 -10 -30 -23 -49 -22 -36 -55 -95 -101
-185 -15 -27 -39 -70 -54 -95 -15 -25 -36 -60 -47 -79 -11 -18 -35 -55 -52
-82 -18 -27 -33 -51 -33 -54 0 -4 -13 -26 -30 -50 -16 -24 -30 -47 -30 -51 0
-4 -14 -25 -30 -48 -17 -23 -53 -75 -80 -116 -28 -41 -66 -95 -85 -120 -20
-25 -43 -58 -52 -75 -9 -16 -39 -58 -67 -92 -28 -34 -67 -83 -86 -108 -59 -79
-98 -128 -145 -180 -25 -28 -52 -61 -62 -75 -9 -14 -39 -50 -67 -81 -28 -31
-96 -107 -151 -169 -55 -62 -176 -187 -268 -279 -93 -91 -176 -179 -184 -195
-21 -40 -11 -161 21 -259 20 -63 24 -101 30 -292 5 -144 14 -268 29 -360 18
-121 21 -181 21 -440 0 -256 -3 -320 -22 -435 -14 -88 -23 -209 -27 -345 -6
-180 -10 -222 -31 -295 -15 -55 -27 -132 -33 -215 -6 -96 -14 -143 -30 -179
-14 -31 -24 -85 -30 -150 -6 -69 -16 -118 -31 -151 -13 -29 -25 -82 -30 -135
-5 -57 -16 -102 -30 -130 -12 -24 -26 -75 -32 -114 -5 -39 -18 -86 -29 -105
-11 -18 -26 -69 -34 -112 -7 -44 -22 -94 -33 -112 -11 -17 -23 -54 -27 -82 -3
-27 -18 -70 -31 -94 -13 -24 -27 -62 -31 -85 -3 -23 -16 -62 -29 -88 -13 -25
-28 -67 -34 -93 -6 -25 -19 -58 -30 -73 -11 -15 -24 -49 -30 -76 -6 -27 -21
-67 -34 -90 -13 -22 -27 -55 -31 -73 -3 -18 -15 -43 -25 -55 -10 -13 -23 -43
-29 -66 -7 -23 -23 -59 -36 -79 -14 -20 -25 -42 -25 -50 0 -13 -14 -44 -115
-243 -26 -52 -58 -116 -71 -142 -13 -25 -28 -49 -33 -52 -5 -4 -15 -23 -22
-44 -6 -20 -21 -50 -34 -67 -12 -16 -27 -45 -33 -63 -6 -18 -21 -45 -32 -60
-23 -28 -114 -179 -151 -247 -12 -22 -28 -48 -36 -57 -8 -9 -38 -54 -66 -101
-54 -87 -139 -212 -208 -307 -22 -30 -48 -66 -57 -80 -66 -99 -382 -492 -502
-625 -268 -297 -611 -639 -754 -753 -32 -26 -107 -88 -165 -137 -96 -82 -106
-94 -109 -128 -3 -35 -1 -39 35 -54 33 -15 94 -17 465 -21 440 -4 644 5 748
33 30 9 127 20 215 25 128 7 174 14 230 33 44 15 106 27 164 31 63 5 112 15
150 30 31 13 87 26 125 30 38 4 94 17 125 30 31 13 80 26 110 30 30 4 75 17
100 30 25 13 74 28 109 34 35 6 78 20 96 31 17 11 52 23 76 27 25 4 72 20 105
36 33 15 69 28 80 28 11 0 43 14 70 30 28 16 59 30 71 30 12 0 41 11 65 23 24
13 67 31 96 41 28 9 57 24 63 31 7 8 31 20 54 26 22 6 57 21 76 34 19 13 49
27 65 31 17 4 44 17 60 29 17 12 46 27 65 34 19 6 43 20 55 30 11 10 34 23 50
28 17 6 48 22 69 37 21 14 42 26 46 26 10 0 107 59 150 91 19 15 44 29 55 33
11 3 52 28 90 56 39 27 86 59 105 70 19 12 53 34 75 51 22 16 74 52 115 81 41
28 91 64 110 80 19 17 88 72 153 123 174 137 237 195 508 465 274 274 433 451
557 623 12 18 29 37 36 42 7 6 34 42 61 80 26 39 67 96 91 127 23 31 49 69 57
85 18 34 83 132 103 154 8 9 25 35 37 58 25 47 108 187 142 241 13 19 26 46
30 60 4 14 18 38 31 53 13 15 28 43 33 62 5 20 21 49 35 66 14 17 26 38 26 47
0 10 11 33 24 53 13 19 29 54 35 76 6 22 20 51 30 65 11 14 23 38 27 54 3 16
19 52 35 80 16 28 29 58 29 65 0 8 13 42 30 76 16 35 32 80 36 100 3 21 16 54
29 73 13 19 26 53 30 75 3 22 17 61 31 88 13 26 27 69 30 95 4 26 17 65 29 87
13 23 28 72 33 113 6 40 20 87 31 106 13 21 25 65 32 116 5 46 19 101 31 123
14 28 23 73 29 137 4 54 17 121 30 155 16 44 24 96 30 195 5 96 14 152 29 195
29 81 39 305 39 850 1 502 -9 678 -39 755 -16 41 -23 89 -30 199 -6 112 -13
159 -30 201 -12 31 -25 92 -29 145 -5 56 -16 108 -29 139 -12 27 -26 84 -31
127 -6 50 -17 92 -31 116 -12 21 -26 67 -31 102 -5 35 -19 79 -30 97 -11 18
-25 64 -31 101 -5 37 -18 82 -28 98 -10 17 -24 53 -30 80 -7 28 -23 66 -35 85
-13 19 -26 52 -29 73 -4 20 -20 65 -36 100 -17 34 -30 71 -30 82 0 11 -14 40
-30 64 -17 24 -30 51 -30 60 0 9 -11 32 -24 52 -13 19 -28 51 -34 72 -6 20
-19 49 -30 64 -11 15 -23 39 -27 51 -10 34 -77 162 -103 199 -12 17 -22 37
-22 45 0 7 -10 28 -23 47 -26 39 -53 87 -121 208 -27 48 -61 102 -75 119 -14
18 -39 55 -56 84 -16 29 -41 66 -55 84 -14 17 -48 65 -75 106 -27 41 -57 84
-66 95 -34 39 -75 91 -119 150 -70 95 -257 308 -392 448 -141 146 -156 152
-204 90z"/>
<path d="M20480 10241 c-94 -49 -184 -90 -210 -97 -14 -3 -41 -16 -60 -29 -19
-13 -53 -26 -75 -30 -22 -4 -54 -15 -71 -26 -17 -10 -59 -25 -93 -33 -35 -8
-71 -22 -80 -30 -9 -8 -45 -22 -79 -30 -34 -8 -76 -23 -94 -34 -18 -11 -61
-25 -96 -30 -35 -6 -78 -20 -95 -31 -18 -10 -59 -22 -92 -26 -33 -4 -82 -19
-108 -32 -28 -14 -79 -28 -121 -32 -39 -5 -91 -18 -115 -30 -29 -15 -75 -26
-140 -32 -60 -6 -111 -17 -136 -30 -28 -14 -75 -23 -154 -30 -65 -6 -137 -18
-170 -30 -39 -14 -100 -23 -201 -30 -165 -10 -195 -14 -303 -39 -68 -16 -144
-20 -570 -25 l-492 -7 -67 -69 c-37 -38 -75 -84 -84 -102 -9 -17 -42 -61 -73
-97 -32 -36 -101 -119 -155 -185 -90 -111 -211 -249 -296 -336 -157 -163 -214
-220 -350 -348 -206 -195 -266 -249 -325 -296 -27 -22 -82 -66 -121 -100 -182
-154 -371 -295 -634 -471 -63 -42 -134 -89 -157 -105 -23 -16 -45 -29 -49 -29
-4 0 -25 -14 -48 -31 -61 -45 -149 -99 -162 -99 -6 0 -19 -9 -28 -19 -10 -11
-32 -25 -49 -32 -18 -7 -45 -22 -62 -33 -16 -12 -47 -30 -70 -42 -22 -12 -66
-35 -97 -53 -32 -17 -82 -44 -110 -59 -29 -15 -62 -33 -73 -39 -20 -11 -225
-110 -366 -177 -41 -20 -83 -36 -92 -36 -10 0 -34 -11 -55 -24 -20 -14 -50
-28 -66 -32 -17 -4 -54 -20 -84 -36 -30 -15 -61 -28 -71 -28 -9 0 -43 -14 -76
-30 -33 -16 -71 -30 -85 -30 -14 0 -46 -11 -72 -25 -25 -13 -67 -29 -94 -35
-26 -6 -60 -20 -76 -31 -16 -12 -57 -25 -94 -30 -35 -5 -83 -18 -105 -29 -22
-12 -65 -26 -97 -31 -31 -6 -77 -21 -102 -34 -25 -12 -74 -25 -110 -29 -36 -4
-92 -18 -125 -31 -33 -13 -94 -28 -135 -33 -42 -5 -97 -19 -122 -31 -30 -14
-77 -23 -135 -27 -48 -3 -126 -16 -173 -29 -48 -14 -139 -29 -210 -35 -71 -5
-153 -19 -190 -31 -55 -17 -106 -22 -325 -30 -143 -5 -305 -13 -360 -18 -55
-5 -156 -15 -225 -22 -106 -10 -156 -10 -325 4 -378 31 -510 38 -665 35 -218
-4 -222 16 48 -279 159 -174 384 -394 529 -518 39 -33 75 -65 78 -71 3 -6 48
-41 98 -79 217 -164 290 -218 337 -251 28 -19 65 -45 83 -58 18 -12 67 -45
109 -72 42 -28 79 -54 83 -59 3 -5 22 -15 43 -22 20 -6 49 -22 64 -35 15 -12
63 -41 105 -65 43 -23 85 -48 93 -55 9 -8 35 -20 59 -29 24 -8 56 -26 73 -40
16 -14 37 -25 46 -25 9 0 37 -14 61 -30 24 -17 50 -30 57 -30 8 0 43 -16 80
-35 36 -19 71 -35 78 -35 7 0 27 -11 46 -25 19 -14 40 -25 48 -25 8 0 49 -16
92 -35 43 -19 86 -35 97 -35 10 0 34 -11 52 -24 18 -14 52 -28 74 -31 23 -4
67 -20 97 -36 30 -16 66 -29 80 -29 14 0 50 -12 80 -26 30 -14 78 -29 107 -34
28 -5 75 -20 105 -33 29 -14 77 -28 107 -31 30 -4 72 -16 93 -27 22 -11 83
-26 136 -34 54 -7 122 -22 152 -33 30 -11 96 -23 145 -27 50 -3 126 -18 169
-31 61 -19 111 -26 210 -30 72 -3 176 -14 231 -25 259 -52 980 -52 1240 0 55
11 157 22 228 25 99 4 144 11 200 30 45 16 108 28 167 32 59 4 118 15 156 29
34 13 92 26 130 30 38 4 94 18 124 31 30 13 85 28 121 33 36 5 85 19 109 31
23 12 68 26 100 31 32 5 82 20 112 34 29 14 62 25 73 25 11 0 47 13 80 30 33
16 69 30 80 30 11 0 47 13 80 29 33 16 76 32 95 36 19 4 59 21 89 36 30 16 59
29 65 29 6 0 27 11 47 24 19 13 54 29 76 35 22 6 46 18 53 26 6 7 28 19 48 26
20 6 58 24 83 40 25 16 53 29 62 29 8 0 28 11 44 24 15 13 48 33 73 44 25 12
68 34 95 50 28 16 73 42 100 58 28 15 56 34 63 41 7 7 32 21 55 33 23 11 62
35 87 55 25 19 65 46 90 60 25 14 65 41 90 60 25 19 76 56 113 82 38 27 96 71
130 98 34 28 74 60 88 70 106 80 143 110 172 138 18 17 71 66 117 107 221 196
621 617 745 785 16 22 52 67 80 100 28 33 72 92 98 130 26 39 67 95 91 127 25
31 52 71 62 90 9 18 26 45 38 60 12 14 35 49 51 78 17 28 40 66 52 83 12 18
30 48 41 67 10 19 39 70 65 112 26 42 51 87 56 100 5 14 21 42 35 63 14 21 26
45 26 54 0 9 14 34 30 55 17 22 30 45 30 51 0 7 11 29 25 49 14 20 30 57 36
81 6 24 22 59 35 76 13 18 24 40 24 49 0 9 16 47 35 86 19 38 35 75 35 82 0 7
11 32 24 55 14 23 28 60 32 82 4 22 20 64 35 94 16 30 29 66 29 80 0 14 11 48
25 74 14 26 30 72 36 103 6 30 19 69 29 87 11 18 24 64 29 103 6 39 21 95 35
125 13 30 27 81 31 114 4 33 16 77 27 99 12 24 25 82 33 155 8 64 23 139 34
167 14 36 22 87 26 175 5 80 16 158 32 219 23 89 25 115 30 420 3 221 2 334
-6 353 -9 24 -16 27 -53 27 -27 -1 -64 -11 -98 -29z"/>
</g>
</svg>
